<svg width="273" height="101" viewBox="0 0 273 101" fill="none" xmlns="http://www.w3.org/2000/svg">
<path d="M54.768 39.396C55.44 39.06 55.692 38.64 55.692 38.136C55.692 37.8 55.608 37.464 55.44 36.96L49.476 21.924C49.14 21 48.468 20.58 47.46 20.58H44.352C43.344 20.58 42.84 21 42.84 21.756C42.84 22.008 42.924 22.26 43.008 22.596C43.344 23.856 43.512 25.032 42.84 25.032C42.672 25.032 42.504 25.032 42.336 24.864C40.236 23.688 34.104 21 27.888 21C14.952 21 6.72 26.88 6.72 36.288C6.72 42.84 9.576 50.904 28.896 56.7C37.968 59.388 46.872 60.564 46.872 69.216C46.872 74.256 42.756 78.036 35.448 78.036C25.788 78.036 16.296 72.492 8.652 60.9C8.316 60.228 7.812 59.976 7.224 59.976C6.972 59.976 6.636 60.06 6.216 60.228L2.604 62.412C1.932 62.748 1.68 63.252 1.68 63.756C1.68 64.092 1.764 64.428 1.932 64.764L12.096 83.832C12.6 84.672 13.272 85.008 14.196 85.008H18.48C19.404 85.092 19.824 84.756 19.824 84.084C19.824 83.832 19.74 83.496 19.656 83.076C19.32 82.068 19.488 81.312 20.244 81.312C20.496 81.312 20.832 81.48 21.252 81.648C25.368 83.664 30.156 84.672 35.028 84.672C50.4 84.672 59.388 76.524 59.388 65.52C59.388 52.836 46.032 48.552 33.18 44.856C26.796 42.924 19.992 40.236 19.992 35.028C19.992 29.148 24.78 27.804 28.98 27.804C34.692 27.804 42.336 31.332 49.476 40.236C49.98 40.824 50.4 41.16 50.988 41.16C51.24 41.16 51.576 41.076 51.912 40.908L54.768 39.396ZM67.9831 74C67.7831 74 67.6831 74.1 67.6831 74.3V74.9C67.6831 75.1 67.7831 75.2 67.9831 75.2H68.3231C68.6631 75.2 68.7831 75.36 68.7831 75.62C68.7831 75.96 68.5631 76.48 68.3031 77.04L66.8431 80.02L65.5031 77.08C65.2631 76.56 65.0631 76.08 65.0631 75.72C65.0631 75.4 65.2231 75.2 65.7031 75.2H65.7431C65.9231 75.2 66.0231 75.1 66.0231 74.9V74.3C66.0231 74.1 65.9231 74 65.7431 74H61.1231C60.9231 74 60.8231 74.1 60.8231 74.3V74.9C60.8231 75.1 60.9231 75.2 61.1231 75.2H61.1631C61.6631 75.2 61.8431 75.48 62.3231 76.46L65.2631 82.56L63.0231 87.34C62.9431 87.52 62.9831 87.66 63.1631 87.74L64.1831 88.26C64.3631 88.34 64.5031 88.28 64.5831 88.12L70.3831 76.46C70.8431 75.46 71.1231 75.2 71.5631 75.2H71.8431C72.0431 75.2 72.1431 75.1 72.1431 74.9V74.3C72.1431 74.1 72.0431 74 71.8431 74H67.9831ZM82.222 68.04C82.222 68.02 82.222 68 82.202 68L82.162 68.02C82.122 68.02 82.102 68.04 82.062 68.06C81.522 68.44 80.422 69.2 78.302 69.9C78.122 69.98 78.022 70 78.022 70.18V70.86C78.022 70.98 78.062 71.08 78.262 71.1C79.362 71.22 79.442 72.34 79.442 73.4V74.68C78.742 74.08 77.842 73.76 76.842 73.76C74.422 73.76 72.182 75.28 72.182 79C72.182 82.86 74.802 84.26 76.602 84.26C78.662 84.26 79.442 82.96 79.662 82.42L79.422 84.2C79.422 84.24 79.422 84.26 79.462 84.26H79.502C79.562 84.26 79.642 84.24 79.682 84.22C80.562 83.84 81.382 83.46 83.362 83.46C83.562 83.46 83.642 83.36 83.642 83.2V82.52C83.642 82.38 83.602 82.28 83.402 82.26C82.422 82.16 82.262 81.26 82.222 80.3V68.04ZM79.442 80.82C79.442 80.82 79.002 82.5 77.502 82.5C75.862 82.5 74.742 80.9 74.742 78.34C74.742 76.7 75.262 75.28 77.202 75.28C78.542 75.28 79.282 76.3 79.442 77.54V80.82ZM97.2592 82.8C96.2792 82.8 95.7792 82 95.7792 80.9V77.6C95.7792 75.7 95.2392 73.74 92.3792 73.74C90.5592 73.74 89.4792 75.14 88.9192 76.04L89.2792 73.42C89.2792 73.38 89.2792 73.38 89.2592 73.38H89.1992C89.1792 73.38 89.1392 73.4 89.1192 73.44C88.5792 73.82 87.0592 74.6 85.1592 74.9C84.9592 74.92 84.8792 75 84.8792 75.16V75.84C84.8592 75.98 84.9192 76.08 85.0992 76.1C86.2192 76.22 86.2792 77.32 86.2792 78.4V80.9C86.2792 82 85.8192 82.8 84.8392 82.8H84.7992C84.5992 82.8 84.4992 82.92 84.4992 83.1V83.7C84.4992 83.9 84.5992 84 84.7992 84H90.5992C90.7992 84 90.8992 83.9 90.8992 83.7V83.1C90.8992 82.92 90.7992 82.82 90.6192 82.8H90.5792C89.5992 82.8 89.0992 82 89.0992 80.9V77.22C89.4392 76.38 90.5392 75.52 91.5392 75.52C93.0592 75.52 92.9792 76.8 92.9792 77.9V80.9C92.9992 82 92.6792 82.8 91.9192 82.8C91.7192 82.8 91.6192 82.92 91.6192 83.1V83.7C91.6192 83.9 91.7192 84 91.9192 84H97.3392C97.5392 84 97.6392 83.9 97.6392 83.7V83.1C97.6392 82.92 97.5392 82.8 97.3392 82.8H97.2592ZM106.37 77.9C106.49 77.84 106.53 77.76 106.53 77.64C106.53 76.14 105.07 73.78 102.41 73.78C100.07 73.78 97.6703 75.2 97.6703 78.92C97.6703 81.82 99.7103 84.24 103.03 84.24C105.05 84.24 106.29 83.32 107.03 81.92C107.09 81.8 107.17 81.68 107.17 81.56C107.17 81.5 107.13 81.44 107.07 81.42C106.43 81.04 106.41 81.02 106.29 81.02C106.23 81.02 106.15 81.04 106.11 81.1C105.41 82.12 104.41 82.58 103.57 82.58C102.01 82.58 101.01 81.54 100.57 80.44L106.37 77.9ZM100.33 79.18C100.15 78.72 100.13 78.06 100.13 77.66C100.13 76.36 100.83 75.36 101.93 75.36C102.85 75.36 103.53 76.3 103.53 77.56L100.33 79.18ZM114.253 74C114.053 74 113.953 74.1 113.953 74.3V74.9C113.953 75.1 114.053 75.2 114.253 75.2H114.593C114.933 75.2 115.053 75.36 115.053 75.62C115.053 75.96 114.833 76.48 114.573 77.04L113.113 80.02L111.773 77.08C111.533 76.56 111.333 76.08 111.333 75.72C111.333 75.4 111.493 75.2 111.973 75.2H112.013C112.193 75.2 112.293 75.1 112.293 74.9V74.3C112.293 74.1 112.193 74 112.013 74H107.393C107.193 74 107.093 74.1 107.093 74.3V74.9C107.093 75.1 107.193 75.2 107.393 75.2H107.433C107.933 75.2 108.113 75.48 108.593 76.46L111.533 82.56L109.293 87.34C109.213 87.52 109.253 87.66 109.433 87.74L110.453 88.26C110.633 88.34 110.773 88.28 110.853 88.12L116.653 76.46C117.113 75.46 117.393 75.2 117.833 75.2H118.113C118.313 75.2 118.413 75.1 118.413 74.9V74.3C118.413 74.1 118.313 74 118.113 74H114.253ZM127.605 76.86C127.725 76.8 127.765 76.74 127.765 76.66C127.765 76.6 127.745 76.54 127.725 76.46L126.725 73.92C126.665 73.76 126.545 73.68 126.385 73.68H125.865C125.685 73.68 125.605 73.76 125.605 73.9C125.605 73.94 125.605 73.98 125.625 74.02C125.685 74.24 125.705 74.44 125.605 74.44C125.565 74.44 125.545 74.44 125.505 74.42C125.165 74.22 124.105 73.76 122.865 73.76C120.765 73.76 119.425 74.92 119.425 76.5C119.425 77.82 119.985 79 123.245 79.96C124.605 80.36 126.285 80.74 126.285 81.76C126.285 82.52 125.585 82.9 124.345 82.9C122.725 82.9 121.105 82.18 119.825 80.2C119.765 80.1 119.685 80.04 119.585 80.04C119.525 80.04 119.465 80.06 119.405 80.1L118.805 80.46C118.685 80.52 118.645 80.6 118.645 80.7C118.645 80.74 118.645 80.8 118.685 80.86L120.405 84.1C120.485 84.24 120.605 84.3 120.765 84.3H121.485C121.645 84.3 121.705 84.24 121.705 84.14C121.705 84.1 121.705 84.04 121.685 83.98C121.625 83.8 121.645 83.68 121.785 83.68C121.825 83.68 121.885 83.68 121.945 83.72C122.645 84.06 123.445 84.24 124.265 84.24C126.885 84.24 128.485 82.86 128.485 81C128.485 78.56 125.825 77.98 123.965 77.5C122.865 77.22 121.745 76.88 121.745 76C121.745 75.24 122.425 74.98 123.145 74.98C124.105 74.98 125.505 75.52 126.725 77.02C126.805 77.12 126.885 77.18 126.965 77.18C127.025 77.18 127.065 77.16 127.125 77.14L127.605 76.86Z" fill="#251D3A"/>
<path d="M98.14 21C97.54 21 97.24 21.36 97.24 21.9V23.7C97.24 24.3 97.54 24.6 98.14 24.6C101.08 24.6 102.52 27.06 102.52 30.3V52.14L75.76 21.54C75.46 21.18 75.1 21.06 74.62 21.06H64.24C63.7 21 63.34 21.36 63.34 21.9V23.7C63.34 24.3 63.7 24.6 64.24 24.6C65.74 24.6 66.88 25.14 68.02 26.16V56.7C68.02 60 66.58 62.4 63.7 62.4C63.1 62.4 62.8 62.76 62.8 63.3V65.1C62.8 65.7 63.1 66 63.7 66H78.46C79.06 66 79.36 65.7 79.36 65.1V63.3C79.36 62.76 79.06 62.4 78.46 62.4C75.52 62.4 74.08 60 74.08 56.7V32.82L102.4 65.52C102.76 65.88 103.06 66 103.54 66H107.68C108.22 66 108.58 65.7 108.58 65.1V30.3C108.52 27.06 109.96 24.6 112.9 24.6C113.5 24.6 113.8 24.3 113.8 23.7V21.9C113.8 21.36 113.5 21 112.9 21H98.14Z" fill="#251D3A"/>
<path d="M118.58 25.2C116.7 26.04 115.6 27.92 115.6 29.9C115.6 30.62 115.74 31.38 116.06 32.08C116.94 34.06 118.86 35.26 120.84 35.26C121.52 35.26 122.22 35.12 122.86 34.82C124.76 33.98 125.86 32.1 125.86 30.12C125.86 29.38 125.72 28.64 125.4 27.92C124.52 25.94 122.6 24.76 120.6 24.76C119.92 24.76 119.24 24.9 118.58 25.2ZM119.18 26.54C119.46 26.42 119.72 26.36 119.98 26.36C121.22 26.36 122.28 27.62 122.92 29.04C123.26 29.8 123.48 30.62 123.48 31.36C123.48 32.3 123.14 33.08 122.26 33.48C122 33.6 121.72 33.64 121.46 33.64C120.24 33.64 119.16 32.4 118.54 30.98C118.2 30.22 117.98 29.4 117.98 28.64C117.98 27.72 118.32 26.92 119.18 26.54Z" fill="#251D3A"/>
<path d="M118.58 38.2C116.7 39.04 115.6 40.92 115.6 42.9C115.6 43.62 115.74 44.38 116.06 45.08C116.94 47.06 118.86 48.26 120.84 48.26C121.52 48.26 122.22 48.12 122.86 47.82C124.76 46.98 125.86 45.1 125.86 43.12C125.86 42.38 125.72 41.64 125.4 40.92C124.52 38.94 122.6 37.76 120.6 37.76C119.92 37.76 119.24 37.9 118.58 38.2ZM119.18 39.54C119.46 39.42 119.72 39.36 119.98 39.36C121.22 39.36 122.28 40.62 122.92 42.04C123.26 42.8 123.48 43.62 123.48 44.36C123.48 45.3 123.14 46.08 122.26 46.48C122 46.6 121.72 46.64 121.46 46.64C120.24 46.64 119.16 45.4 118.54 43.98C118.2 43.22 117.98 42.4 117.98 41.64C117.98 40.72 118.32 39.92 119.18 39.54Z" fill="#251D3A"/>
<path d="M127.14 64.8C126.88 64.8 126.66 64.64 126.2 64.18L121.94 59.88L123.48 58.52C124.54 57.58 124.94 57.2 125.74 57.2H125.98C126.14 57.2 126.24 57.1 126.24 56.9V56.3C126.22 56.12 126.14 56 125.94 56H121.48C121.28 56 121.18 56.12 121.18 56.3V56.9C121.16 57.1 121.28 57.2 121.44 57.2H122.06C122.34 57.2 122.44 57.32 122.44 57.46C122.44 57.56 122.38 57.68 122.3 57.76L119.84 59.96V50.04C119.84 50.02 119.84 50 119.8 50H119.76C119.72 50.02 119.7 50.04 119.66 50.06C119.14 50.44 118.02 51.2 115.92 51.9C115.72 51.98 115.62 52 115.62 52.18V52.86C115.62 52.98 115.66 53.08 115.86 53.1C116.96 53.22 117.04 54.34 117.04 55.4V62.9C117.06 64 116.56 64.8 115.6 64.8C115.4 64.8 115.3 64.92 115.3 65.1V65.7C115.3 65.9 115.4 66 115.6 66H120.92C121.12 66 121.22 65.9 121.22 65.7V65.1C121.22 64.92 121.12 64.8 120.92 64.8C119.94 64.8 119.86 64.48 119.86 62.9V61.72L120.26 61.36L122.92 64.22C123.02 64.32 123.06 64.42 123.06 64.5C123.06 64.7 122.78 64.8 122.54 64.8H122.22C122.08 64.8 121.96 64.9 121.96 65.08V65.1V65.7C121.96 65.9 122.06 66 122.26 66H127.18C127.38 66 127.46 65.9 127.48 65.7V65.1C127.48 64.92 127.38 64.8 127.22 64.8H127.14Z" fill="#251D3A"/>
</svg>
