<svg width="128" height="69" viewBox="0 0 128 69" fill="none" xmlns="http://www.w3.org/2000/svg">
<path d="M53.768 19.396C54.44 19.06 54.692 18.64 54.692 18.136C54.692 17.8 54.608 17.464 54.44 16.96L48.476 1.92399C48.14 0.999986 47.468 0.579987 46.46 0.579987H43.352C42.344 0.579987 41.84 0.999986 41.84 1.75599C41.84 2.00799 41.924 2.25999 42.008 2.59599C42.344 3.85599 42.512 5.03199 41.84 5.03199C41.672 5.03199 41.504 5.03199 41.336 4.86399C39.236 3.68799 33.104 0.999986 26.888 0.999986C13.952 0.999986 5.72 6.87999 5.72 16.288C5.72 22.84 8.576 30.904 27.896 36.7C36.968 39.388 45.872 40.564 45.872 49.216C45.872 54.256 41.756 58.036 34.448 58.036C24.788 58.036 15.296 52.492 7.652 40.9C7.316 40.228 6.812 39.976 6.224 39.976C5.972 39.976 5.636 40.06 5.216 40.228L1.604 42.412C0.932 42.748 0.68 43.252 0.68 43.756C0.68 44.092 0.764 44.428 0.932 44.764L11.096 63.832C11.6 64.672 12.272 65.008 13.196 65.008H17.48C18.404 65.092 18.824 64.756 18.824 64.084C18.824 63.832 18.74 63.496 18.656 63.076C18.32 62.068 18.488 61.312 19.244 61.312C19.496 61.312 19.832 61.48 20.252 61.648C24.368 63.664 29.156 64.672 34.028 64.672C49.4 64.672 58.388 56.524 58.388 45.52C58.388 32.836 45.032 28.552 32.18 24.856C25.796 22.924 18.992 20.236 18.992 15.028C18.992 9.14799 23.78 7.80399 27.98 7.80399C33.692 7.80399 41.336 11.332 48.476 20.236C48.98 20.824 49.4 21.16 49.988 21.16C50.24 21.16 50.576 21.076 50.912 20.908L53.768 19.396Z" fill="#251D3A"/>
<path d="M66.9831 54C66.7831 54 66.6831 54.1 66.6831 54.3V54.9C66.6831 55.1 66.7831 55.2 66.9831 55.2H67.3231C67.6631 55.2 67.7831 55.36 67.7831 55.62C67.7831 55.96 67.5631 56.48 67.3031 57.04L65.8431 60.02L64.5031 57.08C64.2631 56.56 64.0631 56.08 64.0631 55.72C64.0631 55.4 64.2231 55.2 64.7031 55.2H64.7431C64.9231 55.2 65.0231 55.1 65.0231 54.9V54.3C65.0231 54.1 64.9231 54 64.7431 54H60.1231C59.9231 54 59.8231 54.1 59.8231 54.3V54.9C59.8231 55.1 59.9231 55.2 60.1231 55.2H60.1631C60.6631 55.2 60.8431 55.48 61.3231 56.46L64.2631 62.56L62.0231 67.34C61.9431 67.52 61.9831 67.66 62.1631 67.74L63.1831 68.26C63.3631 68.34 63.5031 68.28 63.5831 68.12L69.3831 56.46C69.8431 55.46 70.1231 55.2 70.5631 55.2H70.8431C71.0431 55.2 71.1431 55.1 71.1431 54.9V54.3C71.1431 54.1 71.0431 54 70.8431 54H66.9831Z" fill="#251D3A"/>
<path d="M81.222 48.04C81.222 48.02 81.222 48 81.202 48L81.162 48.02C81.122 48.02 81.102 48.04 81.062 48.06C80.522 48.44 79.422 49.2 77.302 49.9C77.122 49.98 77.022 50 77.022 50.18V50.86C77.022 50.98 77.062 51.08 77.262 51.1C78.362 51.22 78.442 52.34 78.442 53.4V54.68C77.742 54.08 76.842 53.76 75.842 53.76C73.422 53.76 71.182 55.28 71.182 59C71.182 62.86 73.802 64.26 75.602 64.26C77.662 64.26 78.442 62.96 78.662 62.42L78.422 64.2C78.422 64.24 78.422 64.26 78.462 64.26H78.502C78.562 64.26 78.642 64.24 78.682 64.22C79.562 63.84 80.382 63.46 82.362 63.46C82.562 63.46 82.642 63.36 82.642 63.2V62.52C82.642 62.38 82.602 62.28 82.402 62.26C81.422 62.16 81.262 61.26 81.222 60.3V48.04ZM78.442 60.82C78.442 60.82 78.002 62.5 76.502 62.5C74.862 62.5 73.742 60.9 73.742 58.34C73.742 56.7 74.262 55.28 76.202 55.28C77.542 55.28 78.282 56.3 78.442 57.54V60.82Z" fill="#251D3A"/>
<path d="M96.2592 62.8C95.2792 62.8 94.7792 62 94.7792 60.9V57.6C94.7792 55.7 94.2392 53.74 91.3792 53.74C89.5592 53.74 88.4792 55.14 87.9192 56.04L88.2792 53.42C88.2792 53.38 88.2792 53.38 88.2592 53.38H88.1992C88.1792 53.38 88.1392 53.4 88.1192 53.44C87.5792 53.82 86.0592 54.6 84.1592 54.9C83.9592 54.92 83.8792 55 83.8792 55.16V55.84C83.8592 55.98 83.9192 56.08 84.0992 56.1C85.2192 56.22 85.2792 57.32 85.2792 58.4V60.9C85.2792 62 84.8192 62.8 83.8392 62.8H83.7992C83.5992 62.8 83.4992 62.92 83.4992 63.1V63.7C83.4992 63.9 83.5992 64 83.7992 64H89.5992C89.7992 64 89.8992 63.9 89.8992 63.7V63.1C89.8992 62.92 89.7992 62.82 89.6192 62.8H89.5792C88.5992 62.8 88.0992 62 88.0992 60.9V57.22C88.4392 56.38 89.5392 55.52 90.5392 55.52C92.0592 55.52 91.9792 56.8 91.9792 57.9V60.9C91.9992 62 91.6792 62.8 90.9192 62.8C90.7192 62.8 90.6192 62.92 90.6192 63.1V63.7C90.6192 63.9 90.7192 64 90.9192 64H96.3392C96.5392 64 96.6392 63.9 96.6392 63.7V63.1C96.6392 62.92 96.5392 62.8 96.3392 62.8H96.2592Z" fill="#251D3A"/>
<path d="M105.37 57.9C105.49 57.84 105.53 57.76 105.53 57.64C105.53 56.14 104.07 53.78 101.41 53.78C99.0703 53.78 96.6703 55.2 96.6703 58.92C96.6703 61.82 98.7103 64.24 102.03 64.24C104.05 64.24 105.29 63.32 106.03 61.92C106.09 61.8 106.17 61.68 106.17 61.56C106.17 61.5 106.13 61.44 106.07 61.42C105.43 61.04 105.41 61.02 105.29 61.02C105.23 61.02 105.15 61.04 105.11 61.1C104.41 62.12 103.41 62.58 102.57 62.58C101.01 62.58 100.01 61.54 99.5703 60.44L105.37 57.9ZM99.3303 59.18C99.1503 58.72 99.1303 58.06 99.1303 57.66C99.1303 56.36 99.8303 55.36 100.93 55.36C101.85 55.36 102.53 56.3 102.53 57.56L99.3303 59.18Z" fill="#251D3A"/>
<path d="M113.253 54C113.053 54 112.953 54.1 112.953 54.3V54.9C112.953 55.1 113.053 55.2 113.253 55.2H113.593C113.933 55.2 114.053 55.36 114.053 55.62C114.053 55.96 113.833 56.48 113.573 57.04L112.113 60.02L110.773 57.08C110.533 56.56 110.333 56.08 110.333 55.72C110.333 55.4 110.493 55.2 110.973 55.2H111.013C111.193 55.2 111.293 55.1 111.293 54.9V54.3C111.293 54.1 111.193 54 111.013 54H106.393C106.193 54 106.093 54.1 106.093 54.3V54.9C106.093 55.1 106.193 55.2 106.393 55.2H106.433C106.933 55.2 107.113 55.48 107.593 56.46L110.533 62.56L108.293 67.34C108.213 67.52 108.253 67.66 108.433 67.74L109.453 68.26C109.633 68.34 109.773 68.28 109.853 68.12L115.653 56.46C116.113 55.46 116.393 55.2 116.833 55.2H117.113C117.313 55.2 117.413 55.1 117.413 54.9V54.3C117.413 54.1 117.313 54 117.113 54H113.253Z" fill="#251D3A"/>
<path d="M126.605 56.86C126.725 56.8 126.765 56.74 126.765 56.66C126.765 56.6 126.745 56.54 126.725 56.46L125.725 53.92C125.665 53.76 125.545 53.68 125.385 53.68H124.865C124.685 53.68 124.605 53.76 124.605 53.9C124.605 53.94 124.605 53.98 124.625 54.02C124.685 54.24 124.705 54.44 124.605 54.44C124.565 54.44 124.545 54.44 124.505 54.42C124.165 54.22 123.105 53.76 121.865 53.76C119.765 53.76 118.425 54.92 118.425 56.5C118.425 57.82 118.985 59 122.245 59.96C123.605 60.36 125.285 60.74 125.285 61.76C125.285 62.52 124.585 62.9 123.345 62.9C121.725 62.9 120.105 62.18 118.825 60.2C118.765 60.1 118.685 60.04 118.585 60.04C118.525 60.04 118.465 60.06 118.405 60.1L117.805 60.46C117.685 60.52 117.645 60.6 117.645 60.7C117.645 60.74 117.645 60.8 117.685 60.86L119.405 64.1C119.485 64.24 119.605 64.3 119.765 64.3H120.485C120.645 64.3 120.705 64.24 120.705 64.14C120.705 64.1 120.705 64.04 120.685 63.98C120.625 63.8 120.645 63.68 120.785 63.68C120.825 63.68 120.885 63.68 120.945 63.72C121.645 64.06 122.445 64.24 123.265 64.24C125.885 64.24 127.485 62.86 127.485 61C127.485 58.56 124.825 57.98 122.965 57.5C121.865 57.22 120.745 56.88 120.745 56C120.745 55.24 121.425 54.98 122.145 54.98C123.105 54.98 124.505 55.52 125.725 57.02C125.805 57.12 125.885 57.18 125.965 57.18C126.025 57.18 126.065 57.16 126.125 57.14L126.605 56.86Z" fill="#251D3A"/>
<path d="M97.14 0.999988C96.54 0.999988 96.24 1.35999 96.24 1.89999V3.69999C96.24 4.29999 96.54 4.59999 97.14 4.59999C100.08 4.59999 101.52 7.05999 101.52 10.3V32.14L74.76 1.53999C74.46 1.17999 74.1 1.05999 73.62 1.05999H63.24C62.7 0.999988 62.34 1.35999 62.34 1.89999V3.69999C62.34 4.29999 62.7 4.59999 63.24 4.59999C64.74 4.59999 65.88 5.13999 67.02 6.15999V36.7C67.02 40 65.58 42.4 62.7 42.4C62.1 42.4 61.8 42.76 61.8 43.3V45.1C61.8 45.7 62.1 46 62.7 46H77.46C78.06 46 78.36 45.7 78.36 45.1V43.3C78.36 42.76 78.06 42.4 77.46 42.4C74.52 42.4 73.08 40 73.08 36.7V12.82L101.4 45.52C101.76 45.88 102.06 46 102.54 46H106.68C107.22 46 107.58 45.7 107.58 45.1V10.3C107.52 7.05999 108.96 4.59999 111.9 4.59999C112.5 4.59999 112.8 4.29999 112.8 3.69999V1.89999C112.8 1.35999 112.5 0.999988 111.9 0.999988H97.14Z" fill="#251D3A"/>
<path d="M117.58 5.19999C115.7 6.03999 114.6 7.91999 114.6 9.89999C114.6 10.62 114.74 11.38 115.06 12.08C115.94 14.06 117.86 15.26 119.84 15.26C120.52 15.26 121.22 15.12 121.86 14.82C123.76 13.98 124.86 12.1 124.86 10.12C124.86 9.37999 124.72 8.63999 124.4 7.91999C123.52 5.93999 121.6 4.75999 119.6 4.75999C118.92 4.75999 118.24 4.89999 117.58 5.19999ZM118.18 6.53999C118.46 6.41999 118.72 6.35999 118.98 6.35999C120.22 6.35999 121.28 7.61999 121.92 9.03999C122.26 9.79999 122.48 10.62 122.48 11.36C122.48 12.3 122.14 13.08 121.26 13.48C121 13.6 120.72 13.64 120.46 13.64C119.24 13.64 118.16 12.4 117.54 10.98C117.2 10.22 116.98 9.39999 116.98 8.63999C116.98 7.71999 117.32 6.91999 118.18 6.53999Z" fill="#251D3A"/>
<path d="M117.58 18.2C115.7 19.04 114.6 20.92 114.6 22.9C114.6 23.62 114.74 24.38 115.06 25.08C115.94 27.06 117.86 28.26 119.84 28.26C120.52 28.26 121.22 28.12 121.86 27.82C123.76 26.98 124.86 25.1 124.86 23.12C124.86 22.38 124.72 21.64 124.4 20.92C123.52 18.94 121.6 17.76 119.6 17.76C118.92 17.76 118.24 17.9 117.58 18.2ZM118.18 19.54C118.46 19.42 118.72 19.36 118.98 19.36C120.22 19.36 121.28 20.62 121.92 22.04C122.26 22.8 122.48 23.62 122.48 24.36C122.48 25.3 122.14 26.08 121.26 26.48C121 26.6 120.72 26.64 120.46 26.64C119.24 26.64 118.16 25.4 117.54 23.98C117.2 23.22 116.98 22.4 116.98 21.64C116.98 20.72 117.32 19.92 118.18 19.54Z" fill="#251D3A"/>
<path d="M126.14 44.8C125.88 44.8 125.66 44.64 125.2 44.18L120.94 39.88L122.48 38.52C123.54 37.58 123.94 37.2 124.74 37.2H124.98C125.14 37.2 125.24 37.1 125.24 36.9V36.3C125.22 36.12 125.14 36 124.94 36H120.48C120.28 36 120.18 36.12 120.18 36.3V36.9C120.16 37.1 120.28 37.2 120.44 37.2H121.06C121.34 37.2 121.44 37.32 121.44 37.46C121.44 37.56 121.38 37.68 121.3 37.76L118.84 39.96V30.04C118.84 30.02 118.84 30 118.8 30H118.76C118.72 30.02 118.7 30.04 118.66 30.06C118.14 30.44 117.02 31.2 114.92 31.9C114.72 31.98 114.62 32 114.62 32.18V32.86C114.62 32.98 114.66 33.08 114.86 33.1C115.96 33.22 116.04 34.34 116.04 35.4V42.9C116.06 44 115.56 44.8 114.6 44.8C114.4 44.8 114.3 44.92 114.3 45.1V45.7C114.3 45.9 114.4 46 114.6 46H119.92C120.12 46 120.22 45.9 120.22 45.7V45.1C120.22 44.92 120.12 44.8 119.92 44.8C118.94 44.8 118.86 44.48 118.86 42.9V41.72L119.26 41.36L121.92 44.22C122.02 44.32 122.06 44.42 122.06 44.5C122.06 44.7 121.78 44.8 121.54 44.8H121.22C121.08 44.8 120.96 44.9 120.96 45.08V45.7C120.96 45.9 121.06 46 121.26 46H126.18C126.38 46 126.46 45.9 126.48 45.7V45.1C126.48 44.92 126.38 44.8 126.22 44.8H126.14Z" fill="#251D3A"/>
</svg>
